<svg xmlns="http://www.w3.org/2000/svg" viewBox="0 0 773.48 77.74"><defs><style>.cls-1{fill:#fff;}</style></defs><g id="Laag_2" data-name="Laag 2"><g id="Laag_1-2" data-name="Laag 1"><path class="cls-1" d="M337.76.15c3.42,0,6.89-.4,10.22.11a86.12,86.12,0,0,1,12.07,2.63A91.84,91.84,0,0,1,374.92,9c1.64.82,1.81,1.46.93,2.91-2.72,4.49-5.37,9-8,13.55-.53.91-.69.11-1.17-.11a76.74,76.74,0,0,0-19.14-6.53,59.63,59.63,0,0,0-16.09-.54A54.87,54.87,0,0,0,311,24.38c-2.31,1.21-3.14,1.56-4.47-1.1-2.05-4.1-4.63-7.94-7-11.9-.95-1.61.26-1.92.63-2.11A101.41,101.41,0,0,1,315.05,3,63.93,63.93,0,0,1,337.76.15Z"/><path class="cls-1" d="M312.43,33.79c3.37.46,5.24-1.47,7.48-2.23a122.79,122.79,0,0,1,12.27-3.66c5.92-1.33,11.82-1,17.75-.87.42,0,1-.13,1.22.09.93.82,2.84.58,2.72,2.56s-1.38,2-2.8,2.39c-6.06,1.76-12.39,2.73-18,5.89a6.32,6.32,0,0,0-1.22.76c-.57.52-1.2,1-.91,1.79s1.14.49,1.73.49q7.74,0,15.48,0a11.19,11.19,0,0,1,5.36,1.52c4.45,2.4,4.33,4.66,2.08,9.32-3.36,6.94-8.2,13-13.06,18.92a38.33,38.33,0,0,1-3.64,4.44c-.81.75-1.37.87-1.91-.06-2.85-5-5.61-10-8.53-14.86-.61-1-.19-1,.5-1.55a73.62,73.62,0,0,0,11.57-9.93c.6-.68,1.86-1.46,1.11-2.69a2.82,2.82,0,0,0-2.77-1.18,47.84,47.84,0,0,0-15.13,3.42c-1.43.57-2.05.74-2.92-.79-2.93-5.16-2.87-5.21,2.94-8.59a118,118,0,0,1,11.11-5.89c.74-.34,1.12-.66,1-1.42s-.91-.59-1.43-.59c-3.74-.05-7.19,1.29-10.67,2.4A72.74,72.74,0,0,0,309,39.78a2.5,2.5,0,0,1-2.84-.08c-.73-.73.29-1.55.54-2.35.51-1.69,1.86-2.79,2.68-4.26.41-.72.81-1.35.32-1.88s-1.12,0-1.73.33a61.34,61.34,0,0,0-8.75,6.77c-.79.68-1.46,1-2,.42s-.19-1.27.51-2A49.8,49.8,0,0,1,315.33,25c2.16-.87,4.22-2,6.64-1.93.91.05,2.3-.47,2.48.89.11.86-.68,1.65-1.68,2.15a37.75,37.75,0,0,0-7.26,5C314.62,31.77,313.77,32.58,312.43,33.79Z"/><path class="cls-1" d="M559.78,15.48c2-.81,4.16-.46,6-1.31.19-.09.8.17.81.31.32,3,1.81,1.25,2.66.54,1.61-1.34,5.44-1.47,7,.22,1.1,1.15,1.54,1,2.69.08a6.33,6.33,0,0,1,6.51-.92c2.51,1.08,3.19,3.43,3.08,6.09s0,5.3,0,8c0,1.49.1,2.78,2,3.29h-9.2c1.95-1,2.39-2.67,2.3-4.66s-.07-4.14,0-6.21a5.45,5.45,0,0,0-.86-3.26c-.47-.71-.89-1.41-1.8-1.43a2.55,2.55,0,0,0-2.22,1.59,6.64,6.64,0,0,0-1,3.71,55.93,55.93,0,0,1,0,6.21c-.07,1.68.15,3.1,2,4.07h-8.82c2.52-.88,1.83-3,1.85-4.8,0-2.65-.05-5.3,0-7.95a2.43,2.43,0,0,0-1.81-2.75,2.68,2.68,0,0,0-3.08,1.89,24.68,24.68,0,0,0-.65,10.78,3.62,3.62,0,0,0,2.25,2.89h-9.6c2.23-.66,2-2.39,2-4,0-3.14-.08-6.29,0-9.44C561.88,16.84,561.58,15.81,559.78,15.48Z"/><path class="cls-1" d="M644.71,52.36c2.43-.89,4.83.08,7-.92.14-.06.43-.09.45,0,1.36,3.6,3.09.22,4.22-.09,3-.81,6.22.72,6.36,3.82s.09,6.13.08,9.19c0,1.42.17,2.77,1.5,3.59,1.07.66.33,1.06-.18,1.38-1.28.81-6.76.18-8.19-1,1.87-.11,1.86-1.38,1.86-2.63,0-3.06,0-6.13,0-9.19,0-1.1.29-2.58-1.71-2.67s-3.19.77-3.3,2.49c-.22,3.55-.1,7.12-.1,10.68a.79.79,0,0,0,.38.83c.49.26,1.63-.1,1.3,1s-1.32.81-2.13.82c-1.5,0-3,0-4.49,0a2.53,2.53,0,0,1-2.68-1.35c2.62,0,2.66-1.7,2.57-3.63-.11-2.56-.11-5.14,0-7.7C647.73,54.69,647.62,52.76,644.71,52.36Z"/><path class="cls-1" d="M648.48,31.82h-9.63c2.5-.65,1.9-2.63,1.91-4.29,0-2.65,0-5.29,0-7.94,0-1.57-.15-3.2-1.93-3.36a3,3,0,0,0-3.05,2.85c-.29,3.62-.09,7.27-.13,10.91,0,1.34,1.58.61,2,1.79h-9.79c2.76-.71,2.93-2.65,2.8-4.92a66.51,66.51,0,0,1,0-7.2c.12-2.12.05-3.95-2.75-4.38,2.2-.38,4.4-.79,6.61-1.14,1.46-.22.81,1.35,1.46,1.85,1.34-.64,2.45-1.7,4-1.9,4.32-.56,6.24,2.05,6.45,5.95.16,2.89.1,5.79,0,8.69,0,1.52.37,2.52,2.26,2.48Z"/><path class="cls-1" d="M592.34,44.17c.54,1.64.24,3.13.3,4.6,0,.46.14,1.12-.55,1.17a1.1,1.1,0,0,1-1.31-.86c-.57-2.54-2.76-3.21-4.82-3.84a4.25,4.25,0,0,0-5.28,4.37c.27,2.06,2,2.68,3.67,3.31,2.27.84,4.63,1.45,6.61,2.95a8.27,8.27,0,0,1,2.65,8.53c-.68,2.45-4.16,5.28-6.83,5.32-2,0-4.15.49-6.08-.71a1.64,1.64,0,0,0-1.44-.12c-2.92,1.81-2.37-.48-2.43-2,0-1,0-2,0-3a.86.86,0,0,1,.84-1c.61-.08.89.13,1,.76.5,3.06,3.06,4,5.44,4.93,1.66.67,5-1.06,5.49-2.64.9-2.73-.53-5.08-3.56-6.13a37.49,37.49,0,0,1-6-2.45,7.35,7.35,0,0,1-3.25-7.57A7.91,7.91,0,0,1,583.77,44c1.71-.08,3.43-.29,5.09.67C589.93,45.29,591.22,44.87,592.34,44.17Z"/><path class="cls-1" d="M602.21,7.37h10.93c-3,1.28-2.44,3.87-2.44,6.26,0,3.48,0,6.95,0,10.43,0,4.24,1.95,6.77,5.15,7,3.84.24,6.33-2.93,6.61-6.69.32-4.37,0-8.77.09-13.16,0-1.88-1.39-2.62-3.14-3.64,2.64-.55,4.8-.32,7.66-.22-3.36,1.82-3.33,4.48-3.29,7.18.06,3.23-.12,6.46,0,9.68.32,6.09-4.34,8.92-9.39,8.59-3.25-.21-6.57-1-8.28-4.54a10.83,10.83,0,0,1-.68-4.54c-.13-3-.05-6,0-8.94C605.45,12,605.48,9.33,602.21,7.37Z"/><path class="cls-1" d="M411.69,52.28c1.86-.11,2.13-1,2.24-2.6.47-6.71,6-8.16,10.84-5.82a2.93,2.93,0,0,1,1.64,3.4c-.36,1.73-1.86,1.74-3.31,1.63-1.94-.13-1.1-1.62-1.35-2.61-.2-.77,1.13-1.83-.28-2.29s-1.56,1-2.08,1.84c-1.05,1.68-.35,3.51-.45,5.27,0,.83.75.69,1.3.79s1.48-.27,2,.49c-3.39,1.27-3.39,1.27-3.39,5.32,0,2.48,0,5,0,7.44,0,1.43.21,2.66,2,2.8.43,0,.88.11.78.69a.92.92,0,0,1-.85.79c-2.65,0-5.31,0-8,0a.92.92,0,0,1-.85-.79c-.11-.58.33-.71.74-.72,1.09,0,1.11-.76,1.11-1.54,0-4-.13-7.94.06-11.9C414,52.71,412.59,53,411.69,52.28Z"/><path class="cls-1" d="M120.06,53c3.39-2.42,8.1-2.79,10.34-1.11a6.14,6.14,0,0,1,2.5,4.94c.11,3.56,0,7.13,0,10.69,0,1.18-.1,2.17-1.66,2.18S130,68.48,130,67.57c0-2.9,0-5.8,0-8.7,0-4-1.34-5.91-4.23-5.9-3.2,0-5.41,2.15-5.61,6-.15,2.89,0,5.8,0,8.7,0,1,.17,2.09-1.44,2-1.41-.09-1.54-1-1.54-2.06q0-11.19,0-22.37c0-1.32.54-2.12,1.84-2.1S120,44.36,120,45.2C120.08,47.67,120.06,50.15,120.06,53Z"/><path class="cls-1" d="M266.94,38.23V2.69a18.9,18.9,0,0,1,.06-2c.08-.65.65-.65,1.14-.66a.69.69,0,0,1,.77.76c0,.58,0,1.16,0,1.74V73.62a4.56,4.56,0,0,1,0,.74c-.12.82.34,2.14-1,2.09s-1-1.32-1-2.18Q266.94,56.24,266.94,38.23Z"/><path class="cls-1" d="M760.56,39.09c3.57-3.51,3.89-6.42,1.71-11.14a67.7,67.7,0,0,1-3.7-9.54,4.9,4.9,0,0,0-2.87-3.09,27,27,0,0,1,9.58,0c-2,.84-2.18,2-1.22,3.63,1.19,2,1.17,4.61,3.21,6.62.45-2.89,2-5.06,2.47-7.66.27-1.57.41-1.55-1.18-2.41,1.46-1.12,3-.59,4.48-.5.51,0,.61.5.11,1-2.56,2.77-3,6.53-4.55,9.81-1.82,4-3.17,8.12-5,12.08-1.2,2.58-6,2.81-7,.71-.42-.83-1.44-1.45-.43-2.76s2.06-1.08,3.26-1c1.55.15,1.09,1.36,1.14,2.28C760.58,37.69,760.56,38.17,760.56,39.09Z"/><path class="cls-1" d="M512.18,68a2.16,2.16,0,0,1-2.41,1.56c-1.5,0-3,0-4.49,0-.82,0-1.88.21-2.24-.68-.52-1.28.88-.78,1.35-1.16s.33-.9.33-1.36q0-10.06,0-20.12c0-.46.17-1-.45-1.28s-1.63-.41-1.19-1.44c.32-.74,1.18-.41,1.8-.4,5.66.06,4.88-.81,4.92,4.81,0,5.79.06,11.59,0,17.39C509.76,66.94,510,68.11,512.18,68Z"/><path class="cls-1" d="M452.35,26.09c.48.84.93,1.72,1.45,2.56A5.26,5.26,0,0,0,460,31a2.35,2.35,0,0,0,1.82-2.5,2.46,2.46,0,0,0-1.91-2.42c-1.81-.59-3.61-1.21-5.44-1.72-2.69-.75-2.68-2.77-2.7-5s1.33-3.23,2.87-4.28c2-1.38,4.24-1,6.43-.84a2.93,2.93,0,0,1,.94.29c.91.36,2.23-1.16,2.61,0,.45,1.43.11,3.11.11,4.68,0,.37-.22.76-.55.6-.49-.24-1.19-.67-1.24-1.08-.22-2-1.82-2.42-3.21-3.19-1.83-1-3.18.22-3.8,1.36-.75,1.37-.52,2.75,1.74,3.42,1.68.5,3.5.56,5.15,1.5,2.26,1.31,3.28,3,3,5.49A5.35,5.35,0,0,1,462.15,32c-2.21.88-4.37,1.26-6.66.16-1.11-.53-3.05.59-3.45-.28-.61-1.31-.24-3.07-.24-4.64C451.8,26.87,451.64,26.39,452.35,26.09Z"/><path class="cls-1" d="M705.22,63.75c1.14,1.81,2,3.73,4.3,4.63,1.75.69,2.85,0,4-.83a2.1,2.1,0,0,0,1-2.51,3.28,3.28,0,0,0-3-2.13,14.76,14.76,0,0,1-4.4-1.28c-2.38-.84-2.77-3.17-2.58-5.64.17-2.17,1.53-3.08,3.11-4.1,3-1.92,5.88.23,8.82,0,1.21-.08,1,1.14.94,1.9-.12,1,.66,2.23-.67,2.87-.68.33-.89-.11-1.16-.78a4.76,4.76,0,0,0-6-3,2.24,2.24,0,0,0-1.6,2.41,3.12,3.12,0,0,0,2.69,2.4,20.05,20.05,0,0,1,3.75,1c2.89,1.13,4.39,2.94,4.14,5.62A6.15,6.15,0,0,1,713,69.72c-2.41.09-4.82-.08-7.23-.07-.73,0-1.13-.22-1.14-.93,0-1.61,0-3.22,0-4.83Z"/><path class="cls-1" d="M726.91,20a4.82,4.82,0,0,0-3.45-4.45c-1.5-.59-3.9.29-4.36,1.9s.75,2.1,2.08,2.84c1.54.85,3.19.52,4.7,1.25,2.51,1.21,3.92,3,3.59,5.65-.3,2.48-1.91,3.88-4.29,5-3.21,1.56-6-.86-9-.17-.48.11-.65-.43-.65-.86,0-1.67,0-3.35,0-5l.6-.1c.51,1,1,2.05,1.54,3,1,1.75,5,2.81,6.63,1.66a2.42,2.42,0,0,0,1.27-2.64,2.75,2.75,0,0,0-2-2.07c-1.82-.55-3.64-1.14-5.46-1.73s-2.56-1.83-2.59-3.82c0-2.27.49-4.09,2.48-5.38s4.41-1.09,6.71-.89a4.09,4.09,0,0,1,.95.27c.89.29,2.4-1.19,2.65.53C728.52,16.58,729.21,18.51,726.91,20Z"/><path class="cls-1" d="M215.89,60.21v7.71c0,.77,0,1.55-1,1.7-.8.13-1.54,0-1.77-.92s-.35-1.1-1.4-.42a8.19,8.19,0,0,1-8.31.71c-2.58-1.15-3.07-3.38-3.28-5.45-.37-3.7-.09-7.45-.13-11.18,0-1,.33-1.45,1.43-1.46s1.66.31,1.64,1.52c-.05,3.4,0,6.8,0,10.2,0,2,.55,3.95,2.81,4.2,4.32.49,5.17-.07,6.27-2.48,1.71-3.78.39-7.64.88-11.42.09-.72-.5-1.81.84-2,1.12-.13,2.16-.15,2.1,1.54C215.82,55.07,215.89,57.64,215.89,60.21Z"/><path class="cls-1" d="M602.6,60.63c.43,1.61-.39,3.46.63,5.32.81,1.48,1.73,2.74,3.35,2.68,2-.07,3.31-1.46,4-3.31a6.25,6.25,0,0,0,.13-1,1.08,1.08,0,0,1,1.3-.86c.8.14.63.94.45,1.43-.82,2.26-2.19,4.12-4.62,4.76-4.88,1.28-8.82-1.23-10.37-6a10.43,10.43,0,0,1,0-6.58c1.51-5.16,8.12-7.51,12.89-4.86,1.06.59,2.49,1.82,1.9,3.55-.46,1.34-1.22,2.32-3,2.13-2.06-.21-1.9-1.64-1.87-2.89,0-.86.71-1.89-.71-2-1.1-.12-2.25-.61-3.14,1C602.4,56.12,602.81,58.27,602.6,60.63Z"/><path class="cls-1" d="M111.28,16.31c3-3.47,6.35-3.48,9.84-2.06a4.89,4.89,0,0,1,2.8,4.43c.21,4,0,8,.09,11.94,0,1.09-.4,1.4-1.45,1.43-1.2,0-1.6-.36-1.58-1.55,0-3.48,0-7,0-10.45,0-2.15-1-3.64-3.14-3.93-3.15-.44-5.06.77-5.92,2.92-1.43,3.61-.57,7.33-.86,11-.07.77.52,1.95-1.07,2s-1.81-.74-1.8-2c0-4.64,0-9.28,0-13.93,0-1,0-1.8,1.29-2C111.05,13.84,111,15,111.28,16.31Z"/><path class="cls-1" d="M698.09,15.45c2.14-.61,4.2-.68,6.14-1.3.28-.09.89,0,.93.16,1,3.78,2.5.54,3.49.13a3.5,3.5,0,0,1,5,2.86,2.4,2.4,0,0,1-2,2.58,2.2,2.2,0,0,1-3-1.4c-.23-.64-.26-1.31-1.18-1.28s-.61.85-.95,1.22c-1,1.1-.85,2.41-.86,3.69,0,1.74,0,3.48,0,5.21,0,3.23,0,3.23,2.88,4.4H697.9c2.44-.67,2.79-2.35,2.67-4.51a79.71,79.71,0,0,1,0-8.18C700.67,17.18,700.4,15.81,698.09,15.45Z"/><path class="cls-1" d="M672.68,61c.34,1.41-.49,3.41.72,5.42.9,1.49,2.1,2.43,3.41,2.16,1.61-.34,3.47-1.09,3.79-3.24a3.64,3.64,0,0,0,0-.74,1.19,1.19,0,0,1,1.44-1.27c.77.16.65,1.1.42,1.69-.82,2.14-2.15,4-4.44,4.59-5.13,1.21-10.4-1.3-10.54-7-.07-2.67-.57-5.4,1.13-7.84,3-4.23,10.37-5.24,13.44-.74,1,1.4-.1,2.15-.54,3.07-.62,1.28-1.88.69-2.86.66-1.34-.05-1.1-1.23-1.2-2.07-.14-1.18.72-2.73-1.56-2.89s-2.8,1.65-3.16,3.19S672.68,59,672.68,61Z"/><path class="cls-1" d="M467.82,16c.49-1,.8-1.58,1.62-1.83a6.54,6.54,0,0,0,4.3-4.69c.2-.64.09-1.34,1.09-1.26s.81.85.85,1.46c0,.41,0,.82,0,1.24,0,2.1-.76,4.73,3,4.17a3.9,3.9,0,0,1-.25.76c-2.66-.21-2.93,1.32-2.81,3.47.16,2.89,0,5.8.07,8.7,0,.77-.48,1.94,1,2.1,1.21.12,1.46-.88,1.86-1.63.24-.44-.06-1.16.7-1.39.78,2.2.7,3.35-.54,4.38s-3,2-4.72,1.24-3.52-1.26-3.41-3.79c.14-3.22-.06-6.46-.05-9.69C470.56,17.38,470.8,15.49,467.82,16Z"/><path class="cls-1" d="M511.42,31.79H500.88c2.51-.86,2.73-2.75,2.66-4.88-.08-2.32,0-4.64,0-7,0-2,.3-4.12-2.9-4.38,2.26-1,4.4-.85,6.4-1.31,1.48-.33.34,1.76,1.13,2.5,1.24-.27,1.89-1.48,3.14-1.94,2.07-.76,4.42-.37,5.23,1.51.57,1.32,0,2.31-1.27,3.07s-2.46.93-3.47-.37c-.52-.66-.75-2.15-1.66-1.72a3.17,3.17,0,0,0-1.4,2.93c.07,2.48,0,5-.07,7.46C508.55,29.77,508.57,31.61,511.42,31.79Z"/><path class="cls-1" d="M749.2,7.91c1.55,2.67-1.65,7.77,4.51,7.15-.41.59-.49.8-.58.81-3.86.3-3.43,0-3.33,3.8.09,2.94-.69,5.94.56,8.81.27.62,0,1.51,1.12,1.62s1.19-.94,1.69-1.49.05-1.36.92-1.56c1.11,2.42.61,4.44-2.94,5.7-2,.72-4.89-.93-5.68-3-1.44-3.69-.36-7.51-.71-11.26-.11-1.11.5-2.4-1.57-2.69-1.22-.17-.13-1.4.33-1.48C747,13.73,747.74,10.74,749.2,7.91Z"/><path class="cls-1" d="M660.28,15.16a44.61,44.61,0,0,1,9.85-.09c-.66,1.36-1.84.62-2.36,1.47.94,2.51,1.92,5.1,2.86,7.71.14.39.13.88.68.82s1.06-.17,1.15-.76c.34-2,1.61-3.68,2.11-5.61.3-1.17.89-2.62-1.71-3.35a12,12,0,0,1,2.31-.45c1.1.1,2.55-.62,3.21.48.36.6-1.19,1.08-1.51,1.83-1.45,3.38-2.94,6.75-4.16,10.21-.41,1.19-1.29,2.21-1.27,3.63,0,.79-1,1-1.76,1a1.85,1.85,0,0,1-1.89-1.33c-1.47-4.33-3.46-8.46-5-12.76C662.36,16.81,661.58,16.22,660.28,15.16Z"/><path class="cls-1" d="M138.09,27.48A2.4,2.4,0,0,0,136.43,25c-2.07-1-4.2-1.9-6.25-2.95a3.93,3.93,0,0,1-2-4.79c.43-1.73,1.77-2.61,3.59-3.35,2.66-1.08,5-.14,7.4.15,1.55.18,1,1.19.92,2-.18,1.22-.68.8-1.5.42-1.87-.87-3.93-.47-5.89-.35A1.83,1.83,0,0,0,131,18c0,.86,0,1.63,1,2.06,2.11.95,4.26,1.83,6.27,3,2.77,1.55,3.49,3.08,2.68,5.82-.64,2.13-2.44,2.78-4.55,3.41-2.42.73-4.51-.3-6.76-.25a1.37,1.37,0,0,1-1.52-1.32c0-.47,0-1.19.23-1.38.64-.45,1.36-.17,2.06.2,1.87,1,3.91.67,5.85.39A2.06,2.06,0,0,0,138.09,27.48Z"/><path class="cls-1" d="M37.18,69.72A9.91,9.91,0,0,1,33.12,69c-1.42-.57-1.22-1.45-1-2.34.47-1.62,1,.08,1.57.1,2.14.11,4.26.54,6.42.09A2.21,2.21,0,0,0,42,64.94a2,2,0,0,0-1-2.25c-1.83-1.2-3.92-1.77-5.83-2.75-2.63-1.35-3.88-3.32-3-6,.68-2.13,2.55-3,4.77-3,1.66,0,3.33,0,5,0a2.32,2.32,0,0,1,2.14,1.38,1.38,1.38,0,0,1-.33,1.33,2.19,2.19,0,0,1-2.37,0,5.58,5.58,0,0,0-5-.29,2.1,2.1,0,0,0-1.45,2.26,2.58,2.58,0,0,0,1.66,2.2c1.5.75,3.08,1.37,4.64,2,3.19,1.3,4.29,2.88,3.77,5.65-.4,2.11-2.71,3.82-5.56,4.28A13.94,13.94,0,0,1,37.18,69.72Z"/><path class="cls-1" d="M659.49,31.85h-9.68c2.58-.7,2.06-2.74,2.07-4.49,0-2.82,0-5.63,0-8.45,0-1.52.28-3.22-2.27-3.44,2.4-.75,4.69-.69,6.86-1.26,1.35-.35,1.08.89,1.09,1.64,0,4.22,0,8.45,0,12.67,0,1.35-.45,3.1,2.7,2.41Z"/><path class="cls-1" d="M56.4,13.19a25.9,25.9,0,0,0,5,1c1,0,.77,1.25.46,1.54s-.63,1.62-1.84.87c-1.87-1.16-4-.6-6-.45S51.75,18.08,53,19.54s3.4,1.72,5.13,2.47c3.46,1.5,5.33,3.27,4.07,7a4.32,4.32,0,0,1-2.75,2.78,15.7,15.7,0,0,1-8.65.05,1.7,1.7,0,0,1-1.38-2.18c.45-1.09,1.56-.71,2.37-.36,2.37,1,4.76,1.33,6.94-.22,2-1.41,1.65-3-.69-4.08a45.69,45.69,0,0,0-4.56-2c-2.45-.77-4.06-2.59-4-4.83A4.19,4.19,0,0,1,53.82,14C54.71,14,55.32,12.85,56.4,13.19Z"/><path class="cls-1" d="M226.1,21.21c0-2.9-.08-5.79,0-8.69.06-1.75-.38-2.65-2.35-2.4a28.83,28.83,0,0,1-3.48,0c-.8,0-1.5,0-1.46-1.15,0-.93.61-1,1.33-1,5.15,0,10.3,0,15.45,0,.88,0,1.42.24,1.36,1.27s-.74.93-1.4.93c-1.41,0-2.83.09-4.23,0-1.72-.12-2.35.53-2.33,2.27.08,5.79.06,11.59,0,17.38,0,.9.61,2.28-1.32,2.26s-1.61-1.24-1.61-2.39Q226.11,25.42,226.1,21.21Z"/><path class="cls-1" d="M614.7,51.79c2.09,0,4.17,0,6.25,0,1.18,0,.79,1.06.79,1.72,0,3.64,0,7.27,0,10.91,0,2.94,0,2.94,2.48,4a2.52,2.52,0,0,1-2.53,1.15h-5.24c-.68,0-1.43-.09-1.58-.89s.7-.69,1.18-.82c.84-.23.6-.9.6-1.42,0-3.88-.13-7.78.08-11.65.1-1.75-1.22-1.74-2.19-2.29C614.61,52.25,614.66,52,614.7,51.79Z"/><path class="cls-1" d="M513.82,51.81c2,0,3.93,0,5.89,0,1.4,0,1.08,1,1.09,1.72,0,3.72,0,7.44,0,11.16,0,2.8,0,2.8,2.57,3.64a2.15,2.15,0,0,1-2,1.21c-2,0-4,0-6,0-.6,0-1.23-.12-1.44-.75-.32-1,.52-.84,1-.94.84-.15.71-.79.71-1.33,0-4-.05-7.95,0-11.91,0-1.51-1-1.8-2.37-1.87C513.53,52.43,513.67,52.12,513.82,51.81Z"/><path class="cls-1" d="M741.36,31.86h-9.71c2.52-.81,1.93-2.83,1.94-4.57,0-2.9-.05-5.8,0-8.7,0-1.48,0-2.76-2-3.11,2.17-.78,4.35-.76,6.42-1.24,1-.23.64,1.12.64,1.76,0,3.73.08,7.46,0,11.18C738.55,29.33,738.71,31.17,741.36,31.86Z"/><path class="cls-1" d="M108.68,50.93c1.08,0,1.91,0,2.74,0,.62,0,1.42-.12,1.53.85.08.65.3,1.42-.24,1.88a1.66,1.66,0,0,1-1.88,0c-1.69-1.12-3.18-.58-4.85.11-1.46.62-1.88,1.86-2.5,3-1,2-.48,7.29,1,8.8,2,2,4.64,1.16,7.06,1.17.53,0,1.25-.38,1.4.51.1.61.29,1.32-.63,1.62-.45.15-.82.63-1.26.7-6.06.89-10.22-1.34-11-8.09a11.39,11.39,0,0,1,1.4-7.33A6.78,6.78,0,0,1,108.68,50.93Z"/><path class="cls-1" d="M174.89,19.12c0-3.72,0-7.44,0-11.17,0-.88-.18-1.86,1.31-1.81s1.65.73,1.64,1.9q0,11.06,0,22.1c0,1.18-.23,1.85-1.6,1.9-1.69.07-1.35-1.06-1.36-2C174.87,26.41,174.88,22.77,174.89,19.12Z"/><path class="cls-1" d="M90.36,54.12C92,51.54,94,50.49,96.58,50.9c.62.1,1.38-.1,1.38,1,0,.89-.49,1.06-1.24,1.18C91.84,53.84,90,56,90,61c0,2.23,0,4.47,0,6.7,0,.79.4,2-1.11,2a1.75,1.75,0,0,1-1.71-2q0-4.84,0-9.69c0-1.65,0-3.31,0-5,0-1,0-2,1.48-2s1.31.9,1.38,1.81A12.08,12.08,0,0,0,90.36,54.12Z"/><path class="cls-1" d="M167,50.94c.52,0,1.09,0,1.3.51.8,1.93,1.89,1.34,2.95.33s2.56-.92,3.93-.85c.64,0,1.63-.38,1.74.8s-.77,1.26-1.63,1.34c-2.43.23-4.44.9-5.57,3.47A6.33,6.33,0,0,0,169,59c0,3,0,5.95,0,8.92,0,.94,0,1.77-1.4,1.8S166,69,166,67.87c0-5.13,0-10.25,0-15.37C166,51.85,165.7,50.88,167,50.94Z"/><path class="cls-1" d="M0,60.1c0-2.48,0-5,0-7.44,0-.64-.38-1.58.83-1.72.8-.09,1.11.25,1.38,1,.35,1,1,1.41,2,.37,1.35-1.45,3.17-1.57,5-1.41.53.05,1.39-.1,1.2.76-.13.58,0,1.45-1.2,1.55-4.68.4-6.19,2.11-6.2,6.74,0,2.39,0,4.79,0,7.19,0,1,.5,2.48-1.44,2.53C-.57,69.74.11,68.11.07,67.05,0,64.74,0,62.42,0,60.1Z"/><path class="cls-1" d="M214.88,20c0,3.39,0,6.79,0,10.18,0,1.19-.22,1.81-1.61,1.84S212,31.22,212,30.29c0-6.79,0-13.58,0-20.36,0-1-.28-2,1.37-2,1.42,0,1.58.77,1.57,1.92C214.85,13.25,214.88,16.64,214.88,20Z"/><path class="cls-1" d="M148,23c0,2.49,0,5,0,7.46,0,.89,0,1.66-1.27,1.59-1-.06-1.73-.17-1.72-1.49q.08-7.46,0-14.91c0-1.23.49-1.53,1.61-1.59,1.44-.08,1.39.77,1.38,1.74C148,18.19,148,20.59,148,23Z"/><path class="cls-1" d="M657.64,9.19c-.06,1.9-.95,2.91-3,2.9a2.59,2.59,0,0,1-2.88-2.86,2.92,2.92,0,0,1,3.12-3C656.74,6.22,657.73,7.26,657.64,9.19Z"/><path class="cls-1" d="M736.14,6.17c1.39,0,3.53,1.79,3.18,3-.4,1.41-.85,3-3,2.92-1.93-.09-2.78-1-2.79-2.86S734.4,6.23,736.14,6.17Z"/><path class="cls-1" d="M619.51,48.94c-2,.15-2.8-.62-2.94-2.53-.15-2.09,1.18-2.74,2.68-3.09,1.25-.29,3.51,1.88,3.19,3C622,47.77,621.53,49.42,619.51,48.94Z"/><path class="cls-1" d="M518.86,49c-2.1.1-3.11-.61-3.22-2.66a2.63,2.63,0,0,1,2.67-2.91,2.82,2.82,0,0,1,3.06,2.8C521.34,47.36,521.09,49.57,518.86,49Z"/><path class="cls-1" d="M148.13,8.93c-.12.84,0,2.12-1.4,2A1.83,1.83,0,0,1,145,9c0-1.17.4-1.82,1.68-1.88S148.09,7.88,148.13,8.93Z"/><path class="cls-1" d="M447.71,28.65c0-3.15,0-6.3,0-9.45a4.83,4.83,0,0,0-2.06-4.14c-2.57-1.8-5.23-1.32-7.45.28-1.38,1-1.84.73-2.94-.17-1.94-1.59-4.1-1.49-6.39-.42-.85.4-2.54,3.26-3.11-.36,0-.12-.49-.31-.64-.24-1.92.9-4.13.49-6.52,1.15,1,.91,2.42.53,2.35,2.14-.17,4.06-.06,8.12-.06,12.18,0,.86-.25,1.33-1.26,1.41-1.88.14-3.25-.1-4.07-2.18-2.69-6.84-5.77-13.53-7.76-20.63a1.34,1.34,0,0,0-1.64-1.1c-.79.09-1.81-.58-2.33.7-2.32,5.77-4.56,11.59-7.09,17.27-1.07,2.4-1.53,5.39-4.68,6.5a26.7,26.7,0,0,0,7.77.32c-.3-1.21-1-.75-1.51-.94a2,2,0,0,1-1.39-2.51c1.16-4.08,1.66-4.43,6-4.43a7.77,7.77,0,0,0,1.74,0c2-.46,3,.46,3.86,2.13,1.82,3.61,1.66,4.29-1.5,5.13-.06,0-.06.28-.1.53h22.18c-1-1-2.48-.52-2.44-1.95.08-3.72-.05-7.46.14-11.18a2.68,2.68,0,0,1,2.93-2.44c1.4.09,2.12,1.22,2.08,2.76-.07,2.48,0,5,0,7.45,0,2,.67,4.22-2.64,5.38h9.51c-2.37-1-1.82-3-1.84-4.76s.08-3.65,0-5.47a6.66,6.66,0,0,1,1-3.74,2.56,2.56,0,0,1,2.14-1.68c1.16,0,1.58.83,2.08,1.75a5.31,5.31,0,0,1,.61,2.59c0,2.16-.08,4.32,0,6.47.09,1.93-.14,3.64-2.66,4.74h9.67l.6-.73C447.49,31.51,447.72,30,447.71,28.65ZM405.76,23c-.58,0-1.17,0-1.75,0-5.55.13-4.63,0-3-4.53.55-1.5,1.39-2.89,2.25-4.66,1.84,2.55,2.19,5.42,3.44,7.89C407,22.29,406.74,23,405.76,23Z"/><path class="cls-1" d="M563.13,68c-1.9,0-1.4-1.44-1.41-2.5,0-3.22,0-6.45,0-9.67,0-2.56,0-5.13,0-7.69-.13-5.87,1.23-5-5.39-5h-.25c-.48,0-1.07-.05-1.19.6a.91.91,0,0,0,.74,1.12c1.1.27,1,1.11,1,1.94,0,1.41,0,2.81,0,4.22s.09,2.35-1.95,1.18c-4-2.32-7.33-.71-9.15,3.57a12.77,12.77,0,0,0-.65,7.51c1,5.38,5.49,8.77,10.78,5.18.3-.21.53-.85.85-.28,1.45,2.6,3.85,1,5.8,1.36a1.1,1.1,0,0,0,1.17-.75C563.63,68.39,563.5,68,563.13,68Zm-7.61-2a2.22,2.22,0,0,1-2.77,1.8,2.41,2.41,0,0,1-2-2.58c0-3,0-6.09,0-9.13,0-1.51.6-2.72,1.93-3,1.58-.33,2.69,1.07,3,2.33.39,1.74,1.43,3.4.91,5.28C557,62.62,555.86,64.24,555.52,66Z"/><path class="cls-1" d="M478.52,56c-.89-3.91-5-5.47-8.75-4.12-1,.37-2.38,2.78-3.33-.15l-6.6.41-.24.62c2.42-.09,2.4,1.45,2.4,2.95,0,5.39,0,10.78,0,16.17,0,1.83.53,3.94-2.08,4.8h9.72c-2.08-.57-2-2.07-2-3.59,0-1,.06-2,0-3-.1-1.49.5-1.73,1.74-1.12,3.77,1.84,6.59.86,8.55-2.85C479.67,62.78,479.27,59.24,478.52,56Zm-5.71,10.33c-.92,1.76-2.17,2.16-3.59.7a3.09,3.09,0,0,1-.81-1.18c-1-3.85-1.4-7.72.44-11.43.38-.77,1.25-1.73,2.33-1.33,1.68.63,2,2.38,2.48,3.84a12.39,12.39,0,0,1,.06,3.45C473.76,62.36,473.82,64.34,472.81,66.28Z"/><path class="cls-1" d="M499.4,54.86c-1.31-2.89-5.06-5-8.42-3-.7.42-2.09,2.26-2.65-.32a.69.69,0,0,0-.45,0c-1.95.8-4.08.08-6.23.86,2,.78,2.15,2.29,2.12,4-.09,4.8,0,9.6,0,14.4,0,2.24.67,4.79-3.37,5.55,4.33.78,9.33.57,10.63-.23-2.44-.92-3-3.45-1.81-7.94,4.79,3.27,8.41,1.46,10-1.76A12.86,12.86,0,0,0,499.4,54.86Zm-4.67,6.08c-.31,1.6.59,3.74-.82,5.74-1.09,1.56-1.91,1.45-3.31.47a4,4,0,0,1-1.48-2.65c-.53-3.38-.92-6.89.88-10.06.46-.81,1.36-1.87,2.6-1.39a3.29,3.29,0,0,1,2.11,3C494.81,57.52,494.73,59,494.73,60.94Z"/><path class="cls-1" d="M535,27c-.05-6.21,0-12.43,0-18.65,0-.8.44-2-1-2.13-2-.11-4,0-6,0,2.33.81,1.88,2.61,1.89,4.17,0,1.81,0,3.62,0,5.43a6.23,6.23,0,0,0-6.85-1.42c-2.64,1-3.9,3.27-4.37,6.31a27,27,0,0,0,.25,6.92c.32,3.43,5,6,8.3,4.68a5.64,5.64,0,0,1,3.83-.42,11.92,11.92,0,0,0,6.81-.33C534.87,31,535,28.92,535,27Zm-6.27,2.41c-.56.72-1.18,1.68-2.29,1.46a2.2,2.2,0,0,1-1.68-1.54c-1.26-3.91-1.66-7.83-.05-11.76.73-1.78,2-1.94,3.51-.66,2.08,1.79,1.49,4.15,1.6,6.37C529.71,25.36,530.13,27.57,528.68,29.39Z"/><path class="cls-1" d="M456.67,65.88c-2.54-6.84-5.28-13.6-7.86-20.43-.35-.92-.71-1.37-1.69-1.42a2,2,0,0,0-2.23,1.19c-2.08,5.13-4.06,10.31-6.19,15.42-.95,2.28-2.18,4.43-3.24,6.67-.33.7-2,.2-1.48,1.48.49,1.1,1.73.72,2.7.76.66,0,1.33,0,2,0s1.68.06,1.86-.85c.23-1.14-.92-.57-1.37-.89a1.67,1.67,0,0,1-.52-.75c-1.05-2.56,1.25-6,4-6,1.33,0,2.66,0,4,0,2,.08,4.77,4.33,4.08,6.18a.82.82,0,0,1-.68.58c-.5.12-1.35,0-1,.93.2.63.84.76,1.44.76,2.32,0,4.65,0,7,0a2.12,2.12,0,0,0,1.92-1.26A4.2,4.2,0,0,1,456.67,65.88Zm-9.89-6h-.25c-6,.55-6.24.23-3.49-6.05.38-.85.69-1.77,1.21-2.9,2,2.39,2.52,5.18,3.51,7.73C448.07,59.41,447.69,59.9,446.78,59.84Z"/><path class="cls-1" d="M158.18,66.65c-2.14-.67-4.25-.49-6.37-.68-.73-.06-1.81.18-1.76-1.15a2,2,0,0,1,1.79-1.94,12.86,12.86,0,0,1,2.24,0,6.61,6.61,0,0,0,4.09-1.7c2.94-2.24,1.77-5.15,1.39-8l.7-.21c.68-.2,1.83.39,1.81-1s-1.09-1-1.83-1c-2.82,0-5.65,0-8.47,0a4.1,4.1,0,0,0-2.13.44c-3,1.69-4.12,4.33-2.48,8.31.8,2,2,3.36.08,5.22-.45.43.28,1,.52,1.53.45.94.47,1.8-.64,2.27-2.46,1-2.48,3.19-2,5.14.39,1.56,1.77,2.45,3.52,3.11,3.28,1.25,6.3.52,9.41-.2a5.54,5.54,0,0,0,4-5.66C162,68.58,160.76,67.47,158.18,66.65Zm-4.87-13.77c3.16,0,3.73.62,3.72,4,0,3-.87,3.92-3.69,3.93a4.06,4.06,0,0,1-4.27-4A3.91,3.91,0,0,1,153.31,52.88Zm3.39,21.84a20.89,20.89,0,0,1-3.46.24V74.9h-2c-1.66,0-3.05-.28-3.32-2.39A3,3,0,0,1,150.7,69a25.79,25.79,0,0,1,6.45,0c1.29.14,1.95,1.13,2,2.61A2.86,2.86,0,0,1,156.7,74.72Z"/><path class="cls-1" d="M557.74,27.17c-.88-.16-.85.43-1,1s.53,1.92-.92,1.82-1-1.32-1-2.14c0-3.15-.07-6.3,0-9.44a3.58,3.58,0,0,0-1.31-3c-2.42-1.94-9.14-1.81-11.64.12-1.33,1-1.62,3.5-.48,4.42.85.7,1.77,1.27,2.94.75a2.41,2.41,0,0,0,1.41-3,1.91,1.91,0,0,1,1.16-2.39,1.94,1.94,0,0,1,2.5,1,7.75,7.75,0,0,1,.08,5.1c-.36,1.16-1.76.5-2.68.53-4.84.16-7.38,2.56-7.08,6.76.19,2.67,2.33,3.42,4.31,4a3.92,3.92,0,0,0,4.69-1.6c.76.2,1.43-.06,2.36.55,3.76,2.48,6.45.71,7.41-2.74C558.68,28.29,558.88,27.37,557.74,27.17Zm-9,3.85h0l-.08.08a.2.2,0,0,0,0-.08c-1.82.09-3.32-.65-3.83-2.35a4.74,4.74,0,0,1,1.61-5.06,2.67,2.67,0,0,1,2.5-.54c1.14.13.65,1.17.66,1.81C549.73,27,550,29.12,548.75,31Z"/><path class="cls-1" d="M236.42,54.8a5.65,5.65,0,0,0-2.28-2.94c-2.8-1.65-6.84-1.34-10.1,1.16.12-1.5-.38-2.32-1.89-2.09-1.79.28-1.09,1.64-1.1,2.54-.06,7.46,0,14.92,0,22.38,0,1.16.21,1.87,1.62,1.88s1.33-.91,1.34-1.8c0-2.64,0-5.28,0-8.25,6.36,3.79,10.15,2.21,12.42-2.05A12.43,12.43,0,0,0,236.42,54.8ZM233,65.48c-1.08,1.42-2.42,1.49-4.35,1.49-2.41.48-3.39-1.46-4.31-3.55-1.4-3.17-.08-8.12,2.64-9.76a4.63,4.63,0,0,1,5.8.71C234.83,56.6,234.84,63.05,233,65.48Z"/><path class="cls-1" d="M23.1,23.76c-1-1.56-1.29-2.58.71-3.75,2.34-1.36,3.17-5.31,2.24-8.36-.53-1.74-3.33-3.5-5.9-3.6-2.41-.09-4.82,0-7.23-.13-1.34,0-1.93.3-1.91,1.78.06,6.87,0,13.74,0,20.61,0,1,0,1.76,1.39,1.75s1.7-.5,1.66-1.76c-.09-2.23,0-4.47,0-6.7,0-1.13.28-1.58,1.52-1.63,2.17-.08,3.89,0,4.76,2.62.65,1.92,2.2,3.53,3.09,5.39,1,2.1,2.47,2.48,4.7,1.72C26.37,28.92,24.79,26.3,23.1,23.76ZM15.22,19.7c-.85,0-1.19-.75-1.17-1.62,0-1.07,0-2.14,0-3.22a4.59,4.59,0,0,1,0-1.23c.29-1.16-.87-2.8.91-3.43,2.16-.76,7.15.67,8,2.1.7,1.24.32,5-.72,5.77C20.15,19.65,17.66,19.7,15.22,19.7Z"/><path class="cls-1" d="M400.75,51A9.06,9.06,0,0,0,392,60.61c.12,4.83,3.19,9.5,8.82,9.16a8.79,8.79,0,0,0,8.92-9C409.76,55.43,405.58,50.88,400.75,51Zm3.05,9.73c0,1.49,0,3,0,4.47-.07,2-1.35,3.45-3.05,3.39a3.19,3.19,0,0,1-2.92-3.49c0-3-.05-6,0-8.94,0-1.74.53-3.14,2.72-3.32s2.89,1.33,3.15,2.94a31.41,31.41,0,0,1,.06,4.95Z"/><path class="cls-1" d="M82.93,20.07c-.74-5.05-4.84-7.45-9.62-6.19a7.23,7.23,0,0,0-3.17,1.49c-.68.63-.94.63-1-.25s-.5-1.11-1.3-1c-1.07.1-.8.89-.81,1.49,0,3.81,0,7.62,0,11.43,0,3.4-.09,6.8,0,10.19,0,1-1,2.71,1.21,2.82,2.49.12,1.58-1.78,1.67-3,.11-1.49,0-3,0-4.47,0-1.06-.32-1.82,1.56-1.05,4,1.64,7.38,1.5,10.12-2.47C83.52,26.32,83.38,23.11,82.93,20.07Zm-5.39,9.09a4.28,4.28,0,0,1-4.62.58C71.37,29.15,70,28,70,26c0-1,0-2,0-3.56.31-1.05-.6-2.84.63-4.38,2.71-3.39,7.25-2.69,9.14,1.44C81,22.13,79.75,27.22,77.54,29.16Z"/><path class="cls-1" d="M170,21.67c-.5-7.15-5.75-9.81-11.85-7.07-1.25.57-1.21.22-1.22-.64,0-1.91-.05-3.81,0-5.72,0-1.18,0-2.11-1.64-2.11s-1.3,1.19-1.3,2.07q0,10.94,0,21.88c0,.69-.52,1.76.87,1.92s1-1.17,1.48-2c4.17,3.64,9.78,2.93,12.22-.86C170,26.78,170.15,24.26,170,21.67ZM166,27.57a4.86,4.86,0,0,1-5.53,2.37c-2-.53-3.67-1.67-3.55-4.17,0-.91,0-1.82,0-2.73.15-1.6-.47-3.35.38-4.82,1.42-2.44,3.86-2.44,6.22-2.07,2.16.35,3.05,2.33,3.24,4C167.08,22.61,167.55,25.17,166,27.57Z"/><path class="cls-1" d="M489.19,23.86c2.25,0,4.49,0,6.74,0,2.91,0,3.55-1.05,2.36-3.79a7.52,7.52,0,0,1-.46-1.1c-1.29-4.94-6.65-5.91-10.07-4.42-5.34,2.31-6.41,6.12-5.22,12,1,5.12,7.37,7.78,12.57,5.2a4.9,4.9,0,0,0,2.22-5.86c-1.29,1.9-1.38,4.46-3.73,5-3.73.93-6.22-.64-5.88-5.64C487.8,24.22,488.14,23.84,489.19,23.86Zm-1-6.73c.67-.81,1.24-2,2.6-1.82s1.94,1.62,2,4c.07,2.64-2,3.94-4.43,2.84C487.61,21.78,487.37,18.15,488.21,17.13Z"/><path class="cls-1" d="M686.62,23.86c2.41.05,4.82,0,7.23,0,.76,0,1.45,0,1.78-.94,1.22-3.44-1.91-8.34-5.66-8.82-6.07-.77-10.85,2.75-10.39,9.1,0,.5,0,1,0,1.49.18,4.44,2.87,7.19,7.3,8.08a7.6,7.6,0,0,0,8.42-4.65,1.92,1.92,0,0,0,.09-1.84c-.1-.17-.59-.19-.9-.17-1,.05-.71.89-.85,1.48A4,4,0,0,1,690,31.07c-3.3.34-5-1.35-5.27-5.11C684.6,24.5,685.09,23.82,686.62,23.86Zm1.24-8.64c1.28,0,2.53,2.44,2.75,4.64.25,2.47-1.17,2.48-3.29,2.27-.74-.25-2.67.86-2.6-1.65C684.79,18.33,686.58,15.25,687.86,15.22Z"/><path class="cls-1" d="M692.92,60.79c2,.19,4,0,6,0,2.62,0,3.51-1.24,2.42-3.65a19.44,19.44,0,0,1-.81-2c-1-3.11-6.06-4.7-8.13-4.09-3.3,1-6,2.38-7.1,6.31A10.22,10.22,0,0,0,687,66.92c2.23,3,5.64,3.45,8.9,2.68s5.81-3.52,4.25-6.92c-.6,1.31-1,2.34-1.54,3.33a4.15,4.15,0,0,1-6.21,1.75c-1.48-1-1.8-2.67-1.88-4.45S690.82,60.58,692.92,60.79Zm-2.12-5.94a2.33,2.33,0,0,1,2.57-2c2.72.26,2.2,2.31,2.32,3.82,0,3-1.51,4.1-4.32,3.16-.15,0-.39-.07-.44-.16A7.49,7.49,0,0,1,690.8,54.85Z"/><path class="cls-1" d="M194.45,14.51c-2.64-1.59-7.07-1.27-9.21.68a11.34,11.34,0,0,0-2.75,4.7c-1.23,3.25-.07,9,3.2,11.11,2.92,1.92,6,1.47,9.17,1,.83-.13,1.72-.12,2-1.13.15-.55.34-1.29-.16-1.63-.73-.5-1.56-.15-2.33.2a7.15,7.15,0,0,1-7-.62,4.63,4.63,0,0,1-2-4.16c.13-1.47,2.06-.64,3.2-.79a22.71,22.71,0,0,1,2.74,0H196c1,0,1.73-.32,1.94-1.47C198.37,19.81,196.67,15.84,194.45,14.51Zm-.82,6.55c-1.24,0-2.48,0-3.73,0v0h-2.23c-2.39,0-2.71-.57-1.66-2.72.8-1.64,3.67-2.77,5.93-2.25,2,.46,2.14,2.4,2.81,3.85C195.17,20.88,194.31,21.05,193.63,21.06Z"/><path class="cls-1" d="M540.51,63c-1,.12-.67,1-.77,1.55-.58,3.18-4.32,5-6.89,3.32-1.46-.95-2.78-4.5-2-6.17s2.49-.48,3.75-.8a6.16,6.16,0,0,1,1.49,0,33.84,33.84,0,0,1,3.49,0c1.71.19,2.3-.37,2.24-2.16a7.49,7.49,0,0,0-3.42-6.47c-3.06-1.86-6.42-1.54-9.47.41s-4.71,8.45-3,12c1.45,3,3.64,5.1,7.37,5.23s6.59-1.09,7.92-4.93c.21-.62.61-1.14.24-1.75C541.31,63,540.81,62.92,540.51,63Zm-9.79-5.38c.23-3.23.95-4.7,2.95-4.73s2.76,1.66,3,4.74c.19,2.57-1.42,2.3-3.12,2.23C532,59.94,530.54,60.11,530.72,57.57Z"/><path class="cls-1" d="M641.9,63.06c-1.3-.44-1.07.78-1.24,1.53-.73,3.24-4.5,4.93-7,3.17-1.34-1-2.58-4.42-1.91-6.06.74-1.81,2.47-.52,3.71-.85a7.21,7.21,0,0,1,1.74,0,33.84,33.84,0,0,1,3.49,0c1.7.19,2-.51,2-2.1-.08-6.16-6.55-9.75-12.49-6.32-3.29,1.9-5.23,9-3.25,12.67,1.88,3.53,5,5.11,9,4.68A6.45,6.45,0,0,0,642,65C642.26,64.22,643.09,63.46,641.9,63.06Zm-10.23-6.13a10.33,10.33,0,0,1,1.18-3.43c.4-1,1.57-.61,2.43-.63s1.33.46,1.39,1.36a6,6,0,0,0,.4,1.66c1.22,3.25.76,4-3,3.94C631.79,60.46,631.6,59,631.67,56.93Z"/><path class="cls-1" d="M35.1,23.88c2.66,0,5.33-.12,8,0,2.23.12,3.41-.52,3-2.48-.48-5.3-2.29-6.81-6.94-8.15-2-.58-5.82,1.77-7.36,4a15.4,15.4,0,0,0-1.23,3.16c-1.26,3,.58,9.09,3.7,10.76C37.13,32.74,40,32.58,43,32c.78-.14,1.79.08,2-1.06.09-.54.17-1.37-.13-1.64-.7-.6-1.48-.08-2.25.24-4,1.64-7.6-.2-8.75-4C33.32,23.83,34.05,23.89,35.1,23.88Zm-.74-5.74c1.29-1.95,3.29-2.38,5.53-2,2,.3,2.25,2.11,3,3.43.46.84.05,1.58-1.13,1.55s-2.32,0-3.49,0v0c-.74,0-1.49,0-2.24,0s-1.8.37-2-.37A3.4,3.4,0,0,1,34.36,18.14Z"/><path class="cls-1" d="M82,62c0-2,.14-4,0-6s-.65-3.71-2.74-4.47a11,11,0,0,0-8.92.25c-.46.22-1.31,0-1.16.91A1.4,1.4,0,0,0,70.78,54a7.5,7.5,0,0,0,2.34-.64,4.1,4.1,0,0,1,5.38,1.44,3.26,3.26,0,0,1,.37,3c-.24.94-1.25.89-2.1.91-1.5,0-3,0-4.49.18a6.09,6.09,0,0,0-5,3.38,4.86,4.86,0,0,0,.7,5.29,6.88,6.88,0,0,0,9.26,1c1.4-.93,1.94-.64,2.64.38.38.55.76.86,1.41.71s.66-.88.67-1.41C82.05,66.15,82,64.08,82,62Zm-6.55,4.85a10.2,10.2,0,0,1-1.24.11c-3,.15-4.09-.52-4.18-2.49s1.73-3.6,4.18-3.65h1.47c.91.52,3-1.39,3.29,1.25A4.42,4.42,0,0,1,75.48,66.86Z"/><path class="cls-1" d="M195.09,56.07c-1.63-4.54-7.53-7-11.75-4.62-3.32,1.9-4.86,4.75-4.36,8.2,0,.82,0,1.23,0,1.64-.43,3.34,2.09,6.93,5.85,8.27a8.75,8.75,0,0,0,9-2.88A11,11,0,0,0,195.09,56.07Zm-2.46,6.54c-1.47,4-3.27,5-7.29,4.24-2.09-.4-3.38-2.77-3.41-6.27V59.26a5.28,5.28,0,0,1,3.1-5.67,4.94,4.94,0,0,1,7,2.8C192.81,58.47,193.38,60.54,192.63,62.61Z"/><path class="cls-1" d="M60.84,52c-1.78-1.36-5.87-1.3-8.05-.36-2.69,1.17-3.1,3.52-4.1,5.82-1.4,3.21-.35,5.95,1.17,8.41a9.13,9.13,0,0,0,10.45,3.75c1.38-.44,3.7-.71,2.44-3.5-4.61,1.39-9.7,1.9-11.22-3.37-.48-1.65-.06-1.87,1.3-1.88,3.16,0,6.33,0,9.49,0,.66,0,1.47.33,1.73-.84C64.59,57.56,63.1,53.66,60.84,52Zm-1.25,6.71c-1,0-2,0-3,0-.82,0-1.65-.05-2.47,0-2.24.19-2.53-1-2-2.77s3.17-3.26,5.06-2.95,4,2.81,3.86,4.4A1.22,1.22,0,0,1,59.59,58.67Z"/><path class="cls-1" d="M24.33,51.55c-2.6-1.44-7.11-.68-9.19,1.42-2.79,2.82-2.19,6.33-2.07,9.72s2.26,5.5,5.32,6.59a10.69,10.69,0,0,0,8.38-.58c.68-.33.5-1.18.33-1.81-.24-.88-.75-.4-1.32-.28a30.25,30.25,0,0,1-3.46.36c-4.17,0-6.15-1.43-6.29-4.49-.06-1.34.37-1.71,1.66-1.67,2.91.07,5.82,0,8.74,0,.68,0,1.44.25,1.7-.9A7.63,7.63,0,0,0,24.33,51.55Zm-1.25,7.13c-.91,0-1.82,0-2.73,0a1.67,1.67,0,0,1-.5,0c-1.27-.45-3.4,1.14-3.74-1.48-.2-1.52,1.91-3.81,3.74-4.21s4.61,1,5.09,2.91C25.31,57.35,25.31,58.8,23.08,58.68Z"/><path class="cls-1" d="M95.32,13.18C90.56,13.15,87,17,87,22.29c0,6.28,3.32,10.54,8.25,10.45S104,28.55,104,23.1,100.13,13.22,95.32,13.18Zm4.6,14.29c-.72,1.83-3.44,2.91-5.83,2.52A5.71,5.71,0,0,1,90,25.5c-.06-.9,0-1.81,0-3,.25-1.07,0-2.4.71-3.89,1.33-2.81,3.51-2.63,5.77-2.45,1.91.15,2.8,1.55,3.68,3.21C101.69,22.21,101,24.82,99.92,27.47Z"/></g></g></svg>